<svg width="480" height="661" viewBox="0 0 480 661" fill="none" xmlns="http://www.w3.org/2000/svg">
<path d="M479.606 252.982C479.023 255.784 463.158 319.951 413.341 346.664C388.606 359.967 362.705 367.315 340.424 367.315C321.06 367.315 306.008 361.716 297.142 351.216L250.241 376.414V540.334C345.21 543.599 418.121 589.918 418.121 648.719C418.121 655.25 412.985 660.386 406.454 660.386H73.1342C66.7175 660.386 61.4675 655.25 61.4675 648.719C61.4675 590.5 133.217 544.416 226.894 540.568V324.502L182.796 300.699C174.046 311.085 158.878 316.798 139.514 316.798C117.233 316.798 91.3315 309.449 66.5969 296.267C16.7795 269.548 0.914194 205.267 0.331527 202.584C-1.06954 196.751 2.08153 190.918 7.68047 188.934C8.73255 188.465 34.2791 179.252 65.5445 179.252C87.1285 179.252 106.143 183.569 122.242 192.319C146.044 204.918 165.878 221.721 178.356 239.455C188.039 253.341 192.591 266.871 191.772 279.007L226.887 298.023V209.242C199.236 200.143 179.636 158.606 179.636 105.643C179.636 49.1739 228.751 4.8406 230.855 2.9766C235.287 -0.9922 241.938 -0.9922 246.371 2.9766C248.47 4.84113 297.59 49.1739 297.59 105.643C297.59 158.613 277.991 200.143 250.226 209.242V349.935L288.143 329.519C287.794 324.035 288.492 318.202 290.242 312.254C297.711 287.639 323.493 261.035 357.559 242.723C373.778 234.088 392.794 229.656 414.377 229.656C445.642 229.656 471.194 238.989 472.361 239.338C477.845 241.437 480.991 247.27 479.595 252.983L479.606 252.982Z" fill="black"/>
</svg>
