<svg width="477" height="741" viewBox="0 0 477 741" fill="none" xmlns="http://www.w3.org/2000/svg">
<path d="M314.833 58.4013H312.156C308.703 43.7293 300.927 30.3707 289.661 20.0053C275.64 7.10427 257.416 0 238.349 0C219.283 0 201.057 7.10413 187.037 20.0053C175.772 30.3647 167.996 43.7293 164.543 58.4013H161.866C107.33 58.4013 62.959 102.771 62.959 157.308C62.959 163.751 68.183 168.975 74.6257 168.975H402.079C408.522 168.975 413.746 163.751 413.746 157.308C413.746 102.767 369.376 58.4013 314.839 58.4013H314.833ZM250.016 76.5787C250.016 83.0213 244.792 88.2453 238.349 88.2453C231.906 88.2453 226.682 83.0213 226.682 76.5787V66.9745C226.682 60.5319 231.906 55.3079 238.349 55.3079C244.792 55.3079 250.016 60.5319 250.016 66.9745V76.5787Z" fill="black"/>
<path d="M97.3666 353.565H171.195C177.299 353.565 182.262 348.601 182.262 342.497V268.669C182.262 262.565 177.299 257.602 171.195 257.602H97.3666C91.2624 257.602 86.2988 262.565 86.2988 268.669V342.497C86.2988 348.601 91.2676 353.565 97.3666 353.565Z" fill="black"/>
<path d="M171.193 565.179H97.3646C91.2605 565.179 86.2969 570.142 86.2969 576.246V650.074C86.2969 656.179 91.2605 661.142 97.3646 661.142H171.193C177.297 661.142 182.26 656.179 182.26 650.074V576.246C182.26 570.142 177.297 565.179 171.193 565.179Z" fill="black"/>
<path d="M438.327 85.1683H413.441C428.285 105.403 437.072 130.346 437.072 157.304C437.072 176.602 421.369 192.304 402.072 192.304L74.6187 192.309C55.3213 192.309 39.6187 176.607 39.6187 157.309C39.6187 130.345 48.4104 105.408 63.2493 85.1735H38.364C17.208 85.1735 0 102.381 0 123.537V702.471C0 723.627 17.208 740.835 38.364 740.835H438.311C459.467 740.835 476.675 723.627 476.675 702.471L476.68 123.524C476.68 102.373 459.467 85.1602 438.316 85.1602L438.327 85.1683ZM62.9533 268.662C62.9533 249.692 78.3853 234.26 97.3547 234.26H171.183C190.152 234.26 205.584 249.692 205.584 268.662V342.49C205.584 361.459 190.152 376.891 171.183 376.891H97.3547C78.3853 376.891 62.9533 361.459 62.9533 342.49V268.662ZM205.58 650.075C205.58 669.044 190.148 684.476 171.179 684.476H97.3507C78.3813 684.476 62.9493 669.044 62.9493 650.075V576.247C62.9493 557.278 78.3813 541.846 97.3507 541.846H171.179C190.148 541.846 205.58 557.278 205.58 576.247V650.075ZM225.205 456.462H148.955C145.225 456.462 142.194 459.493 142.194 463.222V481.249L144.908 478.535C149.465 473.978 156.851 473.978 161.408 478.535C165.965 483.092 165.965 490.478 161.408 495.035L138.777 517.666C136.59 519.853 133.621 521.082 130.527 521.082C127.433 521.082 124.465 519.853 122.277 517.666L99.6465 495.035C95.0892 490.478 95.0892 483.092 99.6465 478.535C104.204 473.978 111.589 473.978 116.147 478.535L118.86 481.249V463.222C118.86 446.629 132.36 433.129 148.953 433.129H225.204C231.647 433.129 236.871 438.353 236.871 444.795C236.871 451.238 231.648 456.462 225.205 456.462ZM236.07 276.422C236.07 269.979 241.294 264.755 247.737 264.755H323.987C340.581 264.755 354.081 278.255 354.081 294.848V312.875L356.794 310.161C361.351 305.604 368.737 305.604 373.294 310.161C377.851 314.719 377.851 322.104 373.294 326.661L350.664 349.292C348.476 351.479 345.507 352.709 342.414 352.709C339.32 352.709 336.351 351.479 334.163 349.292L311.533 326.661C306.975 322.104 306.975 314.719 311.533 310.161C316.09 305.604 323.475 305.604 328.033 310.161L330.746 312.875V294.848C330.746 291.119 327.715 288.088 323.986 288.088H247.735C241.293 288.088 236.07 282.864 236.07 276.422ZM413.737 481.702C413.737 500.671 398.305 516.103 379.335 516.103H305.507C286.538 516.103 271.106 500.671 271.106 481.702V407.874C271.106 388.904 286.538 373.472 305.507 373.472H379.335C398.305 373.472 413.737 388.904 413.737 407.874V481.702Z" fill="black"/>
<path d="M379.341 396.806H305.513C299.409 396.806 294.445 401.769 294.445 407.873V481.701C294.445 487.806 299.409 492.769 305.513 492.769H379.341C385.445 492.769 390.409 487.806 390.409 481.701V407.873C390.409 401.769 385.44 396.806 379.341 396.806Z" fill="black"/>
</svg>
