<svg width="176" height="167" viewBox="0 0 176 167" fill="none" xmlns="http://www.w3.org/2000/svg">
<path d="M125.292 70.497C126.424 70.077 128.123 69.3528 129.28 69.9087C128.834 70.9432 127.373 71.2011 126.379 71.6288C123.179 73.0124 119.372 75.2437 116.987 77.8162C116.257 78.6053 115.649 79.4916 115.191 80.4614C115.067 80.7208 114.951 80.9786 114.854 81.2504C114.635 81.8387 115.894 81.3353 116.069 81.2705C116.78 80.9987 118.926 79.7819 119.585 80.642C119.023 81.3662 117.956 81.8712 117.168 82.3174C116.166 82.8795 115.158 83.4369 114.195 84.07C112.45 85.2281 110.756 86.7398 110.29 88.8816C109.605 92.0177 105.728 88.1311 104.933 87.1475C103.232 85.0274 102.218 82.4857 101.281 79.958C90.5578 91.2348 102.638 100.416 108.39 109.703C122.261 132.09 112.747 161.628 87.0619 165.961C75.9895 167.829 63.0696 161.861 56.6845 153.668C54.3447 150.674 52.2688 147.085 51.5526 143.308C51.2347 141.614 50.679 136.938 52.2626 135.782C55.9081 133.11 56.561 140.916 57.3296 142.681C61.06 151.211 68.6536 159.125 81.8915 158.847C94.2419 158.589 104.641 148.217 105.805 136.861C107.441 120.89 94.2558 112.153 84.4767 104.53C84.574 104.607 84.4304 106.386 84.4628 106.638C84.5415 107.309 84.7159 107.963 84.9552 108.597C85.4336 109.877 86.1961 111.035 87.0295 112.109C88.8075 114.411 90.8557 116.454 92.291 119.002C92.8405 119.978 94.0289 121.783 93.0982 122.823C92.4978 123.495 91.2369 123.572 90.4158 123.767C89.2783 124.026 88.0636 124.337 87.0234 124.886C85.7824 125.54 84.7098 126.463 83.6819 127.42C83.0089 128.047 82.7697 129.069 82.0335 129.652C80.4299 130.932 81.413 128.694 81.7881 128.029C81.9687 127.712 82.8546 125.881 83.1833 125.868C76.5004 126.134 73.0493 131.676 69.6754 134.863C69.2355 135.277 68.4021 135.484 67.8325 135.323C68.5055 131.274 72.5322 127.944 75.7256 125.83C76.2287 125.493 78.0978 123.852 78.6596 123.929C76.8553 123.677 75.0465 124.911 73.6111 125.856C72.7066 126.451 71.8346 127.084 70.9225 127.674C70.444 127.984 69.6491 128.753 69.0812 128.779C67.9437 128.836 69.4886 126.929 69.8297 126.534C70.5412 125.72 71.3886 125.015 72.2606 124.381C72.7267 124.045 77.9743 121.213 78.0129 121.343C77.4634 119.448 76.3846 122.183 74.781 121.343C76.0543 118.736 80.7278 119.531 84.4767 119.402C83.617 114.656 76.7272 110.35 74.1343 105.177C73.7855 102.24 75.4339 101.303 76.0744 99.357C64.6917 89.0622 51.5264 81.1346 50.2206 62.4983C49.9876 59.2 50.1497 55.857 50.6929 52.5973C51.2162 49.4935 52.0311 46.4547 53.0189 43.4745C53.9958 40.5313 55.1256 37.6407 56.277 34.764C57.433 31.8795 58.5134 28.9703 59.5274 26.0272C60.5754 23.0007 61.3888 19.9819 61.7962 16.7932C61.8873 16.0891 61.8549 15.4035 62.3519 14.8414C64.2657 12.6812 67.7044 10.5919 69.4747 8.63242C70.586 7.39092 71.8207 6.26679 73.0555 5.15346C74.3103 4.0355 75.5758 2.93607 76.7782 1.76561C77.0699 1.48149 77.2443 1.11861 77.4897 0.802064C77.6517 0.588972 77.8447 0.382057 78.0777 0.252349C78.175 0.201392 78.4589 0.0840372 78.5685 0.136538C78.7491 0.226098 78.4265 0.653826 78.3555 0.757284C78.2907 0.846844 77.3214 1.92157 77.3801 2.04973C77.4696 2.23812 78.5114 1.40428 78.6334 1.36413C79.189 1.18964 79.5316 0.769637 80.0749 0.568898C80.7077 0.337277 81.3606 0.116464 82.0335 0.0269039C82.3499 -0.0194204 82.6725 -0.00552309 82.9765 0.0655075C83.2096 0.122641 83.4612 0.168965 83.6741 0.272423C84.043 0.446911 83.5322 0.660003 83.3516 0.751107C83.1972 0.828314 83.0413 0.917875 82.8793 0.982729C82.5042 1.13869 82.1168 1.23597 81.7233 1.3456C80.9732 1.54634 80.166 1.72701 79.493 2.13466C79.2276 2.28907 78.9961 2.51606 78.8016 2.74923C78.4651 3.14916 79.0408 3.22637 79.3634 3.23409C79.8557 3.24644 80.3527 3.16924 80.8435 3.11674C82.0011 2.98857 83.2296 2.82026 84.3918 2.98857C84.6573 3.02717 84.9289 3.08431 85.1805 3.19549C85.3102 3.24644 85.4522 3.33755 85.5617 3.42711C85.9106 3.7452 85.0709 3.90579 84.8703 3.97065C84.5477 4.06793 84.2174 4.13896 83.881 4.18992C83.1571 4.30727 82.4209 4.33352 81.6847 4.38448C80.9732 4.44315 80.2555 4.51419 79.5517 4.64389C78.9374 4.7597 78.2907 4.90794 77.7675 5.26464C77.4835 5.46383 77.2628 5.7356 77.0946 6.03362C76.9202 6.33782 76.6748 6.64202 76.7782 7.00952C76.8878 7.38475 77.3091 7.51446 77.6579 7.56541C77.8508 7.59166 78.0515 7.59784 78.246 7.60556C78.9883 7.61174 79.7523 7.48203 80.4885 7.62409C80.6367 7.65034 80.7926 7.70902 80.9222 7.7924C80.9855 7.83101 81.1599 7.96071 81.1599 8.03792C81.1676 8.20006 80.8049 8.17381 80.6954 8.20623C80.5395 8.25101 80.3851 8.30969 80.2231 8.33594C79.8804 8.39307 79.5455 8.45175 79.209 8.51661C78.5423 8.64014 77.8771 8.7822 77.2242 8.95669C75.9571 9.29331 74.7239 9.73802 73.554 10.3279C72.4674 10.8776 71.421 11.5555 70.5675 12.4295C69.7587 13.2633 69.1907 14.2778 68.9515 15.422C68.6799 16.7037 68.7833 18.0285 68.9129 19.3225C68.9315 19.4831 68.9253 19.6653 68.9639 19.8197C74.6267 17.9776 76.4232 12.1438 81.3482 8.97522C83.2806 7.7399 85.6914 6.90606 89.0005 6.88753C94.7728 6.84893 119.049 14.5696 112.916 22.4062C111.261 24.5217 98.6314 29.2606 92.2324 30.1655C89.3817 30.5732 85.8272 29.3842 83.83 30.1655C78.6982 32.1775 79.0532 37.5048 80.5981 43.7462C80.683 44.0875 85.8334 41.0424 86.247 40.7522C88.0574 39.4906 89.8154 38.1194 91.7802 37.091C92.3944 36.7683 93.001 36.4316 93.6539 36.1923C93.8669 36.1089 94.0814 36.0317 94.2944 36.0317C94.4487 36.024 94.546 35.9792 94.5907 36.1274C94.6308 36.2633 94.6046 36.393 94.4811 36.4641C94.3268 36.5552 94.1524 36.6138 93.9842 36.6911C93.6863 36.8192 93.3498 37.0014 93.3189 37.3628C93.2927 37.6932 95.5862 37.3628 95.8393 37.3442C97.2809 37.2145 99.0898 36.8269 100.331 37.809C100.416 37.8677 100.537 37.9897 100.544 38.1009C100.558 38.2553 100.402 38.2491 100.28 38.2553C99.7874 38.2939 99.3089 38.1456 98.8058 38.1781C98.0109 38.2228 97.2284 38.158 96.4397 38.3402C95.5862 38.5332 94.7728 38.8637 93.9317 39.103C93.8283 39.1354 93.4795 39.2837 93.4085 39.3671C93.2788 39.523 93.5566 39.7099 93.66 39.7948C93.8993 39.9878 94.3005 40.099 94.5907 40.2086C95.7035 40.6348 96.9629 40.3383 98.1205 40.7583C98.9802 41.0687 100.105 41.5597 100.176 42.6206C100.182 42.7827 99.3552 42.3611 99.1345 42.233C98.7672 42.0183 98.0171 41.6833 97.8936 41.657C96.841 41.3142 95.6834 41.3466 94.5984 41.4686C93.447 41.5983 92.4006 41.8763 91.3279 42.3102C91.1011 42.4013 90.8757 42.5032 90.6998 42.6792C90.5778 42.7951 90.4621 42.9371 90.3772 43.0792C90.2676 43.2676 90.3 43.3957 90.3834 43.5903C90.442 43.7262 90.5331 43.8482 90.6427 43.9454C90.8757 44.1462 91.1983 44.2435 91.4962 44.2944C92.1552 44.4179 92.9362 44.3732 93.5504 44.6635C94.0227 44.8905 94.262 45.3552 94.333 45.8664C94.3453 45.9636 94.3839 46.1319 94.3005 46.203C94.1771 46.3188 93.9703 46.1582 93.8545 46.1119C93.0535 45.7891 90.9266 45.2271 90.6751 45.2008C89.5314 45.0773 88.38 45.258 87.3073 45.6718C85.1805 46.4995 83.5198 48.1301 81.7742 49.5461C80.9855 50.1853 79.2739 52.2359 78.1487 51.9194C77.4758 51.7248 77.36 50.6316 77.198 50.0757C76.9078 49.0612 76.5714 48.0652 76.1778 47.0893C75.9123 46.4284 75.7379 45.6656 75.4277 45.0387C75.0202 58.5994 85.8272 66.5393 90.939 76.7245C90.5254 75.903 92.3944 73.3428 92.7695 72.7144C93.9317 70.8012 95.063 68.854 96.5045 67.1416C100.505 62.381 104.242 72.7731 105.172 75.2761C105.501 76.1547 105.793 77.0534 106.128 77.9398C106.561 79.0515 106.995 80.3008 107.744 81.2504C109.58 78.6763 109.554 74.2415 112.255 72.5337C112.462 72.404 112.683 72.2944 112.916 72.1971C112.96 72.4565 112.948 72.6572 112.896 72.8256C112.747 73.3228 111.888 74.2153 111.868 74.836C113.477 74.816 115.597 72.0936 116.76 71.1764C118.111 70.1156 120.639 67.7361 122.488 68.9776C122.08 69.6107 121.014 70.1418 120.38 70.6066C119.599 71.1826 118.822 71.7771 118.111 72.4364C117.395 73.0958 116.716 73.7953 116.057 74.5133C115.481 75.1464 114.538 76.7631 113.846 77.2418C116.166 75.6374 118.642 74.0732 121.053 72.6047C122.403 71.7833 123.806 71.0529 125.292 70.497Z" fill="white"/>
<path d="M46.5941 110.809V120.923C20.6107 119.481 0 98.6009 0 73.0454C0 47.496 20.6107 26.6161 46.5941 25.1738V35.5211C26.1176 37.9902 10.3162 53.898 10.3162 73.1673C10.3162 92.4321 26.1176 108.338 46.5941 110.809Z" fill="white"/>
<path d="M175.002 27.2312V37.3315H145.653V76.5573H165.489V86.3086H145.653V118.717H134.503V86.5402L127.93 86.5541L127.942 76.8415L134.361 76.8353L134.341 26.998L175.002 27.2312Z" fill="white"/>
</svg>
